<svg width="38" height="32" fill="none" xmlns="http://www.w3.org/2000/svg"><path d="M35.47 25.614a11.741 11.741 0 001.576-5.743c.02-2.008-.48-3.99-1.458-5.77A12.412 12.412 0 0031.44 9.67a13.206 13.206 0 00-5.852-2.041A12.173 12.173 0 0022.7 3.545 12.887 12.887 0 0018.353.883a13.374 13.374 0 00-10.117.373 12.754 12.754 0 00-4.119 2.975A12.049 12.049 0 001.57 8.515a11.64 11.64 0 00-.56 4.894 11.77 11.77 0 001.52 4.705L1.477 21.62a1.789 1.789 0 00-.013.985c.088.324.265.62.514.856.248.236.558.405.898.49.34.083.697.079 1.035-.013l3.68-1.002a13.233 13.233 0 004.814 1.433 12.19 12.19 0 003.018 4.205 12.926 12.926 0 004.557 2.665 13.4 13.4 0 005.303.659 13.28 13.28 0 005.123-1.462l3.681 1.002c.338.092.695.096 1.035.012.34-.084.65-.253.898-.49.249-.236.426-.531.514-.855a1.788 1.788 0 00-.013-.985l-1.051-3.506zM7.722 20.99c-.092 0-.183.012-.27.036l-4.08 1.11 1.165-3.886a.895.895 0 00-.1-.736 9.893 9.893 0 01-1.324-7.18c.491-2.468 1.912-4.679 3.994-6.22 2.083-1.54 4.684-2.303 7.316-2.146 2.631.157 5.112 1.223 6.976 2.999 1.865 1.776 2.985 4.138 3.15 6.645.164 2.506-.637 4.983-2.255 6.966-1.617 1.984-3.94 3.336-6.53 3.805-2.59.468-5.27.02-7.539-1.261a1.021 1.021 0 00-.503-.132zm25.743 4.76l1.165 3.886-4.08-1.11a1.03 1.03 0 00-.773.096 11.197 11.197 0 01-4.164 1.36 11.353 11.353 0 01-4.389-.33 11.023 11.023 0 01-3.889-1.966 10.422 10.422 0 01-2.746-3.276 13.27 13.27 0 005.258-1.442 12.63 12.63 0 004.143-3.402 11.915 11.915 0 002.27-4.74 11.611 11.611 0 00-.017-5.211c1.712.305 3.322 1 4.692 2.024a10.408 10.408 0 013.18 3.86 9.888 9.888 0 01.948 4.821 9.963 9.963 0 01-1.498 4.694.91.91 0 00-.1.736z" fill="#fff"/></svg>