<!-- Generated by IcoMoon.io -->
<svg version="1.1" xmlns="http://www.w3.org/2000/svg" width="32" height="32" viewBox="0 0 32 32">
<title>icons8-google-play-1</title>
<path fill="#fff" d="M7.224 3.104l10.026 10.443c0.26 0.271 0.698 0.271 0.958 0l2.031-2.115c0.302-0.313 0.234-0.823-0.146-1.037-5.245-2.969-11.745-6.646-12.87-7.292zM4.188 3.797c-0.115 0.266-0.188 0.552-0.188 0.875v22.786c0 0.26 0.057 0.5 0.146 0.729l11.286-11.755c0.25-0.255 0.25-0.661 0-0.922l-11.245-11.714zM23.255 12.344c-0.141 0.021-0.276 0.088-0.38 0.198l-2.854 2.969c-0.25 0.255-0.25 0.661 0 0.922l2.828 2.943c0.208 0.219 0.547 0.266 0.812 0.115 1.974-1.12 3.307-1.87 3.307-1.87 0.667-0.406 1.042-1.026 1.031-1.703-0.010-0.661-0.396-1.276-1.036-1.635-0.078-0.047-1.38-0.781-3.281-1.854-0.13-0.078-0.281-0.104-0.427-0.083zM17.729 18.193c-0.177 0-0.349 0.068-0.484 0.208l-9.948 10.354c1.714-0.974 7.807-4.422 12.771-7.229 0.38-0.219 0.448-0.729 0.146-1.042l-2.005-2.083c-0.13-0.141-0.302-0.208-0.479-0.208z"></path>
</svg>
