<svg aria-hidden="true" style="position: absolute; width: 0; height: 0; overflow: hidden;" version="1.1" xmlns="http://www.w3.org/2000/svg" xmlns:xlink="http://www.w3.org/1999/xlink">
<defs>
<symbol id="icon-apple" viewBox="0 0 28 32">
<path d="M19.232 5.061c1.011-1.179 1.714-2.8 1.714-4.421 0-0.22-0.021-0.46-0.062-0.64-1.633 0.060-3.618 1.060-4.796 2.421-0.93 1.020-1.798 2.64-1.798 4.282 0 0.24 0.042 0.5 0.062 0.58 0.103 0.019 0.269 0.039 0.434 0.039 1.488 0 3.349-0.96 4.444-2.261zM20.388 7.663c-2.48 0-4.485 1.461-5.766 1.461-1.364 0-3.183-1.381-5.333-1.381-4.071 0-8.226 3.281-8.226 9.423 0 3.861 1.55 7.904 3.431 10.525 1.632 2.221 3.059 4.021 5.085 4.021s2.935-1.301 5.457-1.301c2.542 0 3.121 1.261 5.353 1.261 2.233 0 3.701-1.961 5.085-3.901 1.571-2.221 2.233-4.382 2.254-4.501-0.125-0.041-4.382-1.701-4.382-6.423 0-4.061 3.348-5.882 3.534-6.021-2.191-3.083-5.561-3.162-6.491-3.162z"></path>
</symbol>
<symbol id="icon-calendar" viewBox="0 0 32 32">
<path d="M12.218 3.047l-0.007 1.524h7.477l0.009-1.524h-7.479zM24.381 4.573v-3.051c0-0.842-0.682-1.524-1.524-1.524s-1.524 0.682-1.524 1.524v0 3.051c0 0.842 0.682 1.524 1.524 1.524s1.524-0.682 1.524-1.524v0zM9.524 6.096c0.631 0 1.143-0.509 1.143-1.147v-3.803c0-0.632-0.511-1.146-1.143-1.146h-0.762c-0.631 0-1.143 0.509-1.143 1.146v3.803c0 0.634 0.511 1.147 1.143 1.147h0.762z"></path>
<path d="M6.050 4.571l0.007-1.524h-5.099c-0.53 0-0.958 0.443-0.958 0.989v26.976c0 0.546 0.428 0.987 0.957 0.987h30.085c0.53 0 0.958-0.443 0.958-0.987v-26.976c0-0.547-0.43-0.989-0.958-0.989h-5.126l-0.007 1.524h4.568v7.619h-28.952v-7.619h4.526zM6.096 30.476h-3.917c-0.362 0-0.655-0.254-0.655-0.57v-4.002h4.571v4.571zM6.096 24.381h-4.571v-4.571h4.571v4.571zM25.904 13.714h4.571v4.571h-4.571v-4.571zM25.904 19.81h4.571v4.571h-4.571v-4.571zM25.904 25.904h4.571v4.002c0 0.314-0.294 0.57-0.655 0.57h-3.917v-4.571zM19.81 13.714h4.571v4.571h-4.571v-4.571zM19.81 19.81h4.571v4.571h-4.571v-4.571zM19.81 25.904h4.571v4.571h-4.571v-4.571zM13.714 13.714h4.571v4.571h-4.571v-4.571zM13.714 25.904h4.571v4.571h-4.571v-4.571zM7.619 13.714h4.571v4.571h-4.571v-4.571zM7.619 19.81h4.571v4.571h-4.571v-4.571zM7.619 25.904h4.571v4.571h-4.571v-4.571zM6.096 13.714v4.571h-4.571v-4.571h4.571z"></path>
</symbol>
<symbol id="icon-dialogue" viewBox="0 0 38 32">
<path d="M35.47 25.614c0.969-1.648 1.551-3.625 1.576-5.736l0-0.007c0.020-2.008-0.48-3.99-1.458-5.77-1.018-1.817-2.418-3.308-4.1-4.402l-0.048-0.029c-1.664-1.087-3.654-1.818-5.796-2.036l-0.056-0.005c-0.703-1.6-1.679-2.959-2.881-4.077l-0.007-0.007c-1.216-1.132-2.662-2.036-4.258-2.633l-0.089-0.029c-1.368-0.517-2.95-0.817-4.602-0.817-1.999 0-3.895 0.438-5.598 1.224l0.083-0.034c-1.612 0.74-2.98 1.742-4.111 2.966l-0.008 0.009c-1.103 1.194-1.971 2.622-2.521 4.199l-0.026 0.085c-0.391 1.115-0.617 2.402-0.617 3.74 0 0.406 0.021 0.808 0.061 1.203l-0.004-0.050c0.182 1.755 0.724 3.351 1.55 4.76l-0.030-0.055-1.053 3.506c-0.048 0.154-0.076 0.331-0.076 0.515 0 0.167 0.023 0.329 0.066 0.482l-0.003-0.013c0.088 0.324 0.265 0.62 0.514 0.856s0.558 0.405 0.898 0.49c0.34 0.083 0.697 0.079 1.035-0.013l3.68-1.002c1.396 0.743 3.028 1.252 4.758 1.428l0.056 0.005c0.727 1.654 1.747 3.055 3.008 4.196l0.010 0.009c1.273 1.154 2.792 2.063 4.466 2.638l0.091 0.027c1.274 0.443 2.743 0.699 4.271 0.699 0.363 0 0.723-0.014 1.079-0.043l-0.047 0.003c1.895-0.148 3.637-0.672 5.195-1.497l-0.072 0.035 3.681 1.002c0.338 0.092 0.695 0.096 1.035 0.012s0.65-0.253 0.898-0.49c0.249-0.236 0.426-0.531 0.514-0.855 0.040-0.141 0.063-0.303 0.063-0.47 0-0.184-0.028-0.361-0.079-0.528l0.003 0.013-1.051-3.506zM7.722 20.99c-0.092 0-0.183 0.012-0.27 0.036l-4.080 1.11 1.165-3.886c0.024-0.077 0.038-0.166 0.038-0.258 0-0.177-0.051-0.342-0.14-0.481l0.002 0.004c-0.949-1.491-1.513-3.309-1.513-5.257 0-0.68 0.069-1.345 0.199-1.986l-0.011 0.064c0.491-2.468 1.912-4.679 3.994-6.22s4.684-2.303 7.316-2.146c2.631 0.157 5.112 1.223 6.976 2.999s2.985 4.138 3.15 6.645c0.164 2.506-0.637 4.983-2.255 6.966s-3.94 3.336-6.53 3.805c-2.59 0.468-5.27 0.020-7.539-1.261-0.144-0.083-0.318-0.132-0.502-0.132-0 0-0.001 0-0.001 0h0zM33.465 25.75l1.165 3.886-4.080-1.11c-0.081-0.023-0.173-0.036-0.269-0.036-0.185 0-0.359 0.049-0.509 0.134l0.005-0.003c-1.201 0.689-2.61 1.17-4.11 1.355l-0.054 0.005c-0.408 0.052-0.88 0.082-1.359 0.082-1.078 0-2.121-0.15-3.11-0.431l0.080 0.019c-1.492-0.419-2.79-1.094-3.912-1.983l0.023 0.017c-1.123-0.889-2.043-1.979-2.719-3.221l-0.027-0.055c1.939-0.121 3.731-0.641 5.331-1.477l-0.073 0.035c1.645-0.854 3.025-1.998 4.123-3.376l0.020-0.026c1.058-1.328 1.846-2.921 2.254-4.659l0.016-0.081c0.183-0.772 0.288-1.658 0.288-2.569 0-0.937-0.111-1.849-0.321-2.722l0.016 0.079c1.712 0.305 3.322 1 4.692 2.024 1.347 1.008 2.424 2.303 3.153 3.798l0.027 0.062c0.608 1.246 0.964 2.711 0.964 4.259 0 0.198-0.006 0.394-0.017 0.589l0.001-0.027c-0.107 1.752-0.65 3.358-1.522 4.735l0.024-0.041c-0.086 0.136-0.137 0.302-0.137 0.48 0 0.091 0.013 0.179 0.038 0.263l-0.002-0.006z"></path>
</symbol>
<symbol id="icon-facebook" viewBox="0 0 34 32">
<path fill="#8253d8" style="fill: var(--color2, #8253d8)" d="M33.44 5.47c0-2.583-2.466-4.864-5.261-4.864h-21.21c-2.795 0-5.263 2.281-5.263 4.864v19.605c0 2.581 2.468 4.864 5.263 4.864h10.688v-11.098h-3.947v-4.864h3.947v-1.975c0-3.343 2.63-6.229 5.918-6.229h4.275v4.864h-4.277c-0.493 0-0.986 0.454-0.986 1.365v1.975h5.261v4.864h-5.261v11.093h5.589c2.795 0 5.261-2.278 5.261-4.864v-19.605z"></path>
</symbol>
<symbol id="icon-geo" viewBox="0 0 24 32">
<path d="M12 7c-2.761 0-5 2.239-5 5s2.239 5 5 5c0 0 0 0 0 0h-0c2.761-0 5-2.239 5-5s-2.239-5-5-5c-0 0-0 0-0 0h0zM12 15c-1.657 0-3-1.343-3-3s1.343-3 3-3v0c1.657 0 3 1.343 3 3s-1.343 3-3 3v0zM12 0c-6.627 0-12 5.373-12 12 0 5.017 10.005 20.010 12 20 1.964 0.010 12-15.050 12-20 0-6.627-5.373-12-12-12zM12 29c-1.663 0.009-10-12.819-10-17 0-5.523 4.477-10 10-10s10 4.477 10 10c0 4.125-8.363 17.009-10 17z"></path>
</symbol>
<symbol id="icon-instagram" viewBox="0 0 34 32">
<path fill="#8253d8" style="fill: var(--color2, #8253d8)" d="M28.288 1.506h-22.701c-2.564 0-4.518 1.805-4.518 4.175v20.981c0 2.37 1.954 4.175 4.516 4.175h22.705c2.562 0 4.516-1.805 4.516-4.175v-20.981c0-2.37-1.954-4.175-4.516-4.175zM16.939 24.973c5.248 0 9.519-3.838 9.519-8.463 0-0.789-0.122-1.692-0.365-2.368h2.684v11.957c0 0.563-0.489 1.129-1.22 1.129h-21.239c-0.61 0-1.22-0.452-1.22-1.129v-12.070h2.807c-0.243 0.789-0.365 1.579-0.365 2.368-0.124 4.738 4.149 8.576 9.397 8.576zM16.939 21.587c-3.42 0-6.106-2.483-6.106-5.527 0-3.046 2.688-5.53 6.103-5.53 3.418 0 6.103 2.483 6.103 5.53 0 3.157-2.686 5.525-6.101 5.525zM28.655 9.515c0 0.678-0.61 1.242-1.344 1.242h-3.415c-0.734 0-1.344-0.563-1.344-1.242v-3.044c0-0.678 0.61-1.242 1.344-1.242h3.418c0.732 0 1.344 0.563 1.344 1.242v3.044z"></path>
</symbol>
<symbol id="icon-paperclip" viewBox="0 0 32 32">
<path d="M30.357 11.648l-16.264 16.082c-2.695 2.665-7.064 2.665-9.758 0-1.248-1.229-2.021-2.937-2.021-4.825s0.773-3.596 2.020-4.824l0.001-0.001 14.637-14.475c0.836-0.824 1.985-1.332 3.253-1.332s2.416 0.509 3.253 1.333l-0.001-0.001c0.832 0.819 1.348 1.958 1.348 3.217s-0.516 2.398-1.347 3.216l-0.001 0.001-14.637 14.474c-0.418 0.412-0.993 0.667-1.627 0.667s-1.209-0.255-1.627-0.667l0 0c-0.416-0.41-0.673-0.979-0.673-1.608s0.258-1.198 0.673-1.608l0-0 13.011-12.866-1.626-1.608-13.010 12.867c-0.832 0.819-1.347 1.958-1.347 3.216s0.515 2.397 1.347 3.216l0.001 0.001c0.836 0.824 1.985 1.332 3.253 1.332s2.416-0.509 3.253-1.333l-0.001 0.001 14.639-14.472c1.248-1.229 2.021-2.937 2.021-4.825s-0.773-3.596-2.020-4.824l-0.001-0.001c-2.696-2.665-7.064-2.665-9.759 0l-15.451 15.277 0.056 0.056c-1.205 1.519-1.933 3.465-1.933 5.58 0 2.515 1.029 4.789 2.689 6.425l0.001 0.001c3.317 3.28 8.532 3.526 12.141 0.748l0.056 0.056 17.075-16.887-1.625-1.609z"></path>
</symbol>
<symbol id="icon-pen" viewBox="0 0 32 32">
<path d="M0 25.243v6.757h6.756l19.556-19.733-6.757-6.757-19.555 19.733zM31.467 7.11c0.71-0.711 0.71-1.778 0-2.489l-4.090-4.090c-0.71-0.71-1.777-0.71-2.489 0l-3.2 3.2 6.757 6.757 3.022-3.378z"></path>
</symbol>
<symbol id="icon-play" viewBox="0 0 28 32">
<path d="M3.047 1.084l23.788 13.733c0.433 0.253 0.719 0.716 0.719 1.246s-0.286 0.993-0.713 1.243l-0.007 0.004-23.788 13.735c-0.206 0.121-0.454 0.193-0.719 0.193-0.795 0-1.439-0.644-1.439-1.439v-27.47c0-0.795 0.644-1.439 1.439-1.439 0.265 0 0.513 0.072 0.726 0.196l-0.007-0.004z"></path>
<path d="M26.836 14.818l-23.788-13.733c-0.127-0.073-0.275-0.128-0.432-0.159l-0.009-0.001 22.998 13.278c0.433 0.254 0.719 0.716 0.719 1.246s-0.286 0.992-0.712 1.242l-0.007 0.004-23.79 13.735c-0.215 0.124-0.441 0.178-0.664 0.185 0.404 0.578 1.208 0.827 1.896 0.431l23.788-13.735c0.433-0.254 0.719-0.716 0.719-1.246s-0.286-0.992-0.712-1.242l-0.007-0.004z"></path>
<path stroke-linejoin="miter" stroke-linecap="butt" stroke-miterlimit="10" stroke-width="0.8889" d="M3.047 1.084l23.788 13.733c0.433 0.253 0.719 0.716 0.719 1.246s-0.286 0.993-0.713 1.243l-0.007 0.004-23.788 13.735c-0.206 0.121-0.454 0.193-0.719 0.193-0.795 0-1.439-0.644-1.439-1.439v-27.469c0-0.795 0.644-1.439 1.439-1.439 0.265 0 0.513 0.072 0.726 0.196l-0.007-0.004z"></path>
</symbol>
<symbol id="icon-twitter" viewBox="0 0 41 32">
<path fill="#8253d8" style="fill: var(--color2, #8253d8)" d="M40.633 4.688c-1.339 0.53-2.896 0.922-4.515 1.103l-0.084 0.008c1.6-0.926 2.999-2.405 3.6-4.069-1.6 0.926-3.2 1.479-5.2 1.851-1.401-1.483-3.6-2.407-5.801-2.407-4.4 0-8 3.328-8 7.394 0 0.555 0 1.109 0.201 1.664-6.601-0.37-12.601-3.328-16.601-7.765-0.599 1.109-0.999 2.402-0.999 3.696 0 2.59 1.399 4.807 3.6 6.103-0.010 0-0.021 0-0.033 0-1.31 0-2.539-0.343-3.604-0.945l0.037 0.019c0 3.513 2.8 6.656 6.4 7.209-0.601 0.185-1.401 0.185-2.201 0.185-0.599 0-0.999 0-1.6-0.183 1.001 2.955 4 5.175 7.6 5.175-2.8 2.034-6.199 3.143-10 3.143-0.599 0-1.2 0-2-0.185 3.6 2.034 7.801 3.328 12.4 3.328 14.8 0 22.8-11.278 22.8-21.074v-0.926c1.6-0.553 3.001-1.849 4-3.328z"></path>
</symbol>
<symbol id="icon-cross" viewBox="0 0 32 32">
<path d="M31.708 25.708c-0-0-0-0-0-0l-9.708-9.708 9.708-9.708c0-0 0-0 0-0 0.105-0.105 0.18-0.227 0.229-0.357 0.133-0.356 0.057-0.771-0.229-1.057l-4.586-4.586c-0.286-0.286-0.702-0.361-1.057-0.229-0.13 0.048-0.252 0.124-0.357 0.228 0 0-0 0-0 0l-9.708 9.708-9.708-9.708c-0-0-0-0-0-0-0.105-0.104-0.227-0.18-0.357-0.228-0.356-0.133-0.771-0.057-1.057 0.229l-4.586 4.586c-0.286 0.286-0.361 0.702-0.229 1.057 0.049 0.13 0.124 0.252 0.229 0.357 0 0 0 0 0 0l9.708 9.708-9.708 9.708c-0 0-0 0-0 0-0.104 0.105-0.18 0.227-0.229 0.357-0.133 0.355-0.057 0.771 0.229 1.057l4.586 4.586c0.286 0.286 0.702 0.361 1.057 0.229 0.13-0.049 0.252-0.124 0.357-0.229 0-0 0-0 0-0l9.708-9.708 9.708 9.708c0 0 0 0 0 0 0.105 0.105 0.227 0.18 0.357 0.229 0.356 0.133 0.771 0.057 1.057-0.229l4.586-4.586c0.286-0.286 0.362-0.702 0.229-1.057-0.049-0.13-0.124-0.252-0.229-0.357z"></path>
</symbol>
<svg aria-hidden="true" style="position: absolute; width: 0; height: 0; overflow: hidden;" version="1.1" xmlns="http://www.w3.org/2000/svg" xmlns:xlink="http://www.w3.org/1999/xlink">
<defs>
<symbol id="icon-icons8-google-play-1" viewBox="0 0 32 32">
<path d="M7.224 3.104l10.026 10.443c0.26 0.271 0.698 0.271 0.958 0l2.031-2.115c0.302-0.313 0.234-0.823-0.146-1.037-5.245-2.969-11.745-6.646-12.87-7.292zM4.188 3.797c-0.115 0.266-0.188 0.552-0.188 0.875v22.786c0 0.26 0.057 0.5 0.146 0.729l11.286-11.755c0.25-0.255 0.25-0.661 0-0.922l-11.245-11.714zM23.255 12.344c-0.141 0.021-0.276 0.088-0.38 0.198l-2.854 2.969c-0.25 0.255-0.25 0.661 0 0.922l2.828 2.943c0.208 0.219 0.547 0.266 0.812 0.115 1.974-1.12 3.307-1.87 3.307-1.87 0.667-0.406 1.042-1.026 1.031-1.703-0.010-0.661-0.396-1.276-1.036-1.635-0.078-0.047-1.38-0.781-3.281-1.854-0.13-0.078-0.281-0.104-0.427-0.083zM17.729 18.193c-0.177 0-0.349 0.068-0.484 0.208l-9.948 10.354c1.714-0.974 7.807-4.422 12.771-7.229 0.38-0.219 0.448-0.729 0.146-1.042l-2.005-2.083c-0.13-0.141-0.302-0.208-0.479-0.208z"></path>
</symbol>
</defs>
</svg>
</defs>
</svg>
