<svg width="16" height="15" fill="none" xmlns="http://www.w3.org/2000/svg"><path d="M13.26.706H2.619C1.417.706.501 1.552.501 2.663v9.835c0 1.111.916 1.957 2.117 1.957h10.643c1.201 0 2.117-.846 2.117-1.957V2.663c0-1.111-.916-1.957-2.117-1.957zm-5.32 11c2.46 0 4.462-1.799 4.462-3.967 0-.37-.057-.793-.171-1.11h1.258v5.605c0 .264-.229.529-.572.529H2.961c-.286 0-.572-.212-.572-.529V6.576h1.316c-.114.37-.171.74-.171 1.11-.058 2.221 1.945 4.02 4.405 4.02zm0-1.587c-1.603 0-2.862-1.164-2.862-2.591 0-1.428 1.26-2.592 2.861-2.592 1.602 0 2.861 1.164 2.861 2.592 0 1.48-1.259 2.59-2.86 2.59zm5.492-5.659c0 .318-.286.582-.63.582h-1.601c-.344 0-.63-.264-.63-.582V3.033c0-.318.286-.582.63-.582h1.602c.343 0 .63.264.63.582V4.46z" fill="#8253D8"/></svg>