<svg width="32" height="36" fill="none" xmlns="http://www.w3.org/2000/svg"><path d="M3.428 1.22L30.19 16.67a1.619 1.619 0 010 2.804L3.428 34.926A1.619 1.619 0 011 33.524V2.62a1.619 1.619 0 012.428-1.402z" fill="#fff"/><path d="M30.19 16.67L3.429 1.22a1.624 1.624 0 00-.496-.18l25.873 14.938a1.619 1.619 0 010 2.803L2.042 34.233c-.242.14-.496.2-.747.208.455.65 1.359.93 2.133.485L30.19 19.474a1.619 1.619 0 000-2.803z" fill="#fff"/><path d="M3.428 1.22L30.19 16.67a1.619 1.619 0 010 2.804L3.428 34.926A1.619 1.619 0 011 33.524V2.621a1.619 1.619 0 012.428-1.402z" stroke="#fff" stroke-miterlimit="10"/></svg>