<svg width="18" height="14" fill="none" xmlns="http://www.w3.org/2000/svg"><path d="M17.777 2.051a8.068 8.068 0 01-2.012.486c.7-.405 1.312-1.052 1.575-1.78-.7.405-1.4.647-2.275.81C14.452.918 13.49.514 12.527.514c-1.925 0-3.5 1.456-3.5 3.235 0 .243 0 .485.088.728-2.888-.162-5.513-1.456-7.263-3.397-.262.485-.437 1.051-.437 1.617 0 1.133.612 2.103 1.575 2.67a3.209 3.209 0 01-1.575-.405c0 1.537 1.225 2.912 2.8 3.154-.263.081-.613.081-.963.081-.262 0-.437 0-.7-.08.438 1.293 1.75 2.264 3.325 2.264-1.225.89-2.712 1.375-4.375 1.375-.262 0-.525 0-.875-.081 1.575.89 3.413 1.456 5.425 1.456 6.475 0 9.975-4.934 9.975-9.22v-.405c.7-.242 1.313-.809 1.75-1.456z" fill="#8253D8"/></svg>